<svg width="67" height="60" viewBox="0 0 67 60" fill="none" xmlns="http://www.w3.org/2000/svg">
<g clip-path="url(#clip0_14_169)">
<path d="M53.4604 2.19941V3.82005C53.4604 4.76203 52.6879 5.52104 51.7461 5.5043L12.5688 4.81224C11.8846 4.80014 11.3362 4.24211 11.3362 3.55778V2.46181C11.3362 1.77748 11.8846 1.21945 12.5688 1.20735L51.7462 0.51516C52.688 0.498551 53.4604 1.25744 53.4604 2.19941Z" fill="#F3CE72"/>
<path d="M27.5261 0.0200806H10.8383C9.55534 0.0200806 8.51538 1.06004 8.51538 2.34296V24.4351H29.849V2.34296C29.849 1.06004 28.809 0.0200806 27.5261 0.0200806Z" fill="#F3CE72"/>
<path opacity="0.5" d="M27.5261 0.0200806H10.8383C9.55534 0.0200806 8.51538 1.06004 8.51538 2.34296V24.4351H29.849V2.34296C29.849 1.06004 28.809 0.0200806 27.5261 0.0200806Z" fill="white"/>
<path opacity="0.15" d="M11.925 10.7328C11.2408 10.7449 10.6924 11.3029 10.6924 11.9873V13.0832C10.6924 13.7676 11.2408 14.3256 11.925 14.3377L29.849 14.6544V10.4162L11.925 10.7328Z" fill="#212121"/>
<g opacity="0.1">
<path opacity="0.1" d="M20.1474 0.0195923H18.2161V24.4342H20.1474V0.0195923Z" fill="#212121"/>
<path opacity="0.1" d="M14.9882 0.0195923H13.0569V24.4342H14.9882V0.0195923Z" fill="#212121"/>
<path opacity="0.1" d="M25.308 0.0195923H23.3767V24.4342H25.308V0.0195923Z" fill="#212121"/>
</g>
<path d="M53.4603 10.1726V11.7932C53.4603 12.7352 52.6878 13.4942 51.7459 13.4775L12.5685 12.7853C11.8843 12.7732 11.3359 12.215 11.3359 11.5308V10.4348C11.3359 9.7505 11.8843 9.19247 12.5685 9.18037L51.7459 8.48818C52.6879 8.47157 53.4603 9.23046 53.4603 10.1726Z" fill="#F3CE72"/>
<path d="M43.7776 51.399H22.9429L21.5956 57.6611C21.3389 58.8544 22.2484 59.9804 23.469 59.9804H43.2515C44.4721 59.9804 45.3816 58.8544 45.1249 57.6611L43.7776 51.399Z" fill="#C06376"/>
<path opacity="0.1" d="M43.7777 51.399H22.943L22.0229 55.6757C25.5595 56.7602 29.3773 57.334 33.3604 57.334C37.3434 57.334 41.1613 56.7602 44.6978 55.6757L43.7777 51.399Z" fill="#212121"/>
<path d="M2.99427 24.4351C1.48088 24.4351 0.279081 25.7274 0.40848 27.2352C1.84024 43.9193 16.0465 54.7332 33.3603 54.7332C50.6742 54.7332 64.8804 43.9193 66.3122 27.2352C66.4416 25.7274 65.2398 24.4351 63.7264 24.4351H2.99427Z" fill="#C06376"/>
<path d="M55.768 45.3793C53.2929 42.9042 49.28 42.9042 46.8049 45.3793C44.3299 47.8544 40.3169 47.8544 37.8419 45.3793C35.3668 42.9042 31.3539 42.9042 28.8788 45.3793C26.4038 47.8544 22.3908 47.8544 19.9158 45.3793C17.4407 42.9042 13.4278 42.9042 10.9527 45.3793C10.6003 45.7317 10.2165 46.0333 9.81055 46.2852C15.8077 51.6684 24.1435 54.7332 33.3603 54.7332C42.577 54.7332 50.9127 51.6684 56.91 46.2852C56.5042 46.0333 56.1204 45.7317 55.768 45.3793Z" fill="#E978A0"/>
<path opacity="0.1" d="M14.2981 27.2351C14.1687 25.7273 15.3705 24.4349 16.8839 24.4349H2.99427C1.48088 24.4349 0.279081 25.7273 0.40848 27.2351C1.84024 43.9193 16.0465 54.7332 33.3603 54.7332C35.7427 54.7332 38.0657 54.5274 40.3051 54.1308C26.269 51.6451 15.5329 41.6236 14.2981 27.2351Z" fill="#212121"/>
<path opacity="0.1" d="M19.5976 21.821C20.5972 21.0088 22.1019 21.4976 22.4333 22.7423C22.6496 23.5546 23.4057 24.104 24.245 24.0586C25.5311 23.9891 26.461 25.269 25.9976 26.4708C25.6952 27.2551 25.984 28.144 26.6897 28.6007C27.771 29.3005 27.771 30.8826 26.6897 31.5823C25.984 32.039 25.6952 32.9279 25.9976 33.7122C26.4611 34.9138 25.5311 36.1938 24.245 36.1244C23.4057 36.0791 22.6495 36.6285 22.4333 37.4407C22.1019 38.6853 20.5972 39.1742 19.5976 38.362C18.9452 37.8319 18.0105 37.8319 17.3581 38.362C16.3585 39.1742 14.8539 38.6853 14.5224 37.4407C14.3061 36.6283 13.5501 36.0789 12.7107 36.1244C11.4246 36.1939 10.4946 34.914 10.9581 33.7122C11.2606 32.9279 10.9718 32.039 10.266 31.5823C9.18476 30.8825 9.18476 29.3004 10.266 28.6007C10.9718 28.144 11.2606 27.2551 10.9581 26.4708C10.4946 25.2692 11.4246 23.9892 12.7107 24.0586C13.5501 24.1039 14.3063 23.5545 14.5224 22.7423C14.8539 21.4976 16.3585 21.0088 17.3581 21.821C18.0105 22.351 18.9452 22.351 19.5976 21.821Z" fill="#212121"/>
<path opacity="0.1" d="M41.0798 36.6066C38.3464 39.3399 38.3464 43.7714 41.0798 46.5048C43.8131 49.2381 48.2446 49.2381 50.978 46.5048C53.7113 43.7714 56.9086 36.1427 54.1752 33.4093C51.4419 30.676 43.8131 33.8732 41.0798 36.6066Z" fill="#212121"/>
<path d="M42.175 34.8537C39.4417 37.5871 39.4417 42.0186 42.175 44.7519C44.9084 47.4853 49.3399 47.4853 52.0732 44.7519C54.8066 42.0186 58.0038 34.3898 55.2705 31.6564C52.5371 28.9231 44.9084 32.1203 42.175 34.8537Z" fill="white"/>
<path opacity="0.1" d="M52.9542 43.0436C50.2209 45.7769 45.7892 45.7769 43.056 43.0436C41.0915 41.079 40.5389 38.2371 41.3984 35.7791C39.4746 38.5102 39.7321 42.3089 42.1751 44.7519C44.9084 47.4852 49.3399 47.4852 52.0733 44.7519C53.037 43.7882 54.058 42.2155 54.857 40.4637C54.2512 41.5064 53.5901 42.4076 52.9542 43.0436Z" fill="#212121"/>
<path d="M47.1241 43.4114C49.1174 43.4114 50.7332 41.7956 50.7332 39.8024C50.7332 37.8092 49.1174 36.1934 47.1241 36.1934C45.1309 36.1934 43.5151 37.8092 43.5151 39.8024C43.5151 41.7956 45.1309 43.4114 47.1241 43.4114Z" fill="#F3CE72"/>
<path d="M20.3019 19.8765C21.3016 19.0643 22.8062 19.5532 23.1376 20.7979C23.3539 21.6102 24.11 22.1596 24.9494 22.1141C26.2355 22.0446 27.1654 23.3247 26.702 24.5264C26.3995 25.3106 26.6883 26.1995 27.394 26.6562C28.4753 27.356 28.4753 28.9382 27.394 29.6378C26.6883 30.0945 26.3995 30.9834 26.702 31.7677C27.1655 32.9694 26.2355 34.2493 24.9494 34.1799C24.11 34.1346 23.3538 34.684 23.1376 35.4962C22.8062 36.7409 21.3016 37.2297 20.3019 36.4176C19.6495 35.8875 18.7149 35.8875 18.0625 36.4176C17.0628 37.2297 15.5582 36.7409 15.2268 35.4962C15.0105 34.6839 14.2544 34.1346 13.4151 34.1799C12.1289 34.2493 11.1989 32.9695 11.6624 31.7677C11.9649 30.9834 11.6761 30.0945 10.9704 29.6378C9.8891 28.938 9.8891 27.3559 10.9704 26.6562C11.6761 26.1995 11.9649 25.3106 11.6624 24.5264C11.1989 23.3247 12.1289 22.0447 13.4151 22.1141C14.2544 22.1595 15.0106 21.6101 15.2268 20.7979C15.5582 19.5532 17.0628 19.0643 18.0625 19.8765C18.7149 20.4066 19.6495 20.4066 20.3019 19.8765Z" fill="white"/>
<path d="M18.8779 32.36C16.4347 32.36 14.4473 30.3725 14.4473 27.9294C14.4473 25.8684 16.1239 24.1917 18.1849 24.1917C19.9401 24.1917 21.3681 25.6197 21.3681 27.3751C21.3681 27.9085 20.9359 28.3407 20.4025 28.3407C19.869 28.3407 19.4368 27.9085 19.4368 27.3751C19.4368 26.6848 18.8753 26.123 18.1849 26.123C17.189 26.123 16.3786 26.9334 16.3786 27.9294C16.3786 29.3074 17.4998 30.4286 18.8779 30.4286C20.7336 30.4286 22.2434 28.919 22.2434 27.0631C22.2434 26.5297 22.6756 26.0974 23.2091 26.0974C23.7425 26.0974 24.1747 26.5297 24.1747 27.0631C24.1746 29.9838 21.7984 32.36 18.8779 32.36Z" fill="#E978A0"/>
</g>
<defs>
<clipPath id="clip0_14_169">
<rect width="65.9228" height="60" fill="white" transform="translate(0.398926)"/>
</clipPath>
</defs>
</svg>
